<?xml version="1.0" standalone="no"?>
<!DOCTYPE svg PUBLIC "-//W3C//DTD SVG 20010904//EN"
 "http://www.w3.org/TR/2001/REC-SVG-20010904/DTD/svg10.dtd">
<svg version="1.0" xmlns="http://www.w3.org/2000/svg"
 width="60.000000pt" height="49.000000pt" viewBox="0 0 60.000000 49.000000"
 preserveAspectRatio="xMidYMid meet">

<g transform="translate(0.000000,49.000000) scale(0.100000,-0.100000)"
fill="#000000" stroke="none">
<path d="M0 245 l0 -245 300 0 300 0 0 245 0 245 -300 0 -300 0 0 -245z m278
98 c-2 -14 -15 -19 -61 -21 -56 -3 -57 -4 -57 -32 0 -29 1 -30 50 -30 43 0 50
-3 50 -20 0 -17 -7 -20 -49 -20 l-50 0 -3 -42 c-2 -31 -8 -44 -20 -46 -16 -3
-18 7 -18 112 l0 116 81 0 c71 0 80 -2 77 -17z m166 6 c42 -20 21 -36 -39 -31
-51 4 -55 3 -55 -17 0 -14 9 -25 28 -32 91 -36 92 -37 92 -74 0 -29 -5 -37
-32 -51 -55 -29 -151 -2 -128 36 7 12 12 12 22 2 6 -6 32 -12 56 -12 39 0 43
2 40 22 -2 15 -16 26 -48 37 -64 23 -70 28 -70 66 0 27 6 38 28 49 33 18 72
20 106 5z"/>
</g>
</svg>
